<mxfile modified="2021-05-21T02:29:41.989Z" host="app.diagrams.net" agent="5.0 (Windows NT 10.0; WOW64) AppleWebKit/537.36 (KHTML, like Gecko) Chrome/75.0.3770.100 Safari/537.36" etag="PXIAOXcDfc2iN_aK40DB" version="14.6.13" type="github">
  <diagram id="Ht1M8jgEwFfnCIfOTk4-" name="Page-1">
    <mxGraphModel dx="1382" dy="760" grid="0" gridSize="10" guides="1" tooltips="1" connect="1" arrows="1" fold="1" page="1" pageScale="1" pageWidth="1169" pageHeight="827" math="0" shadow="0">
      <root>
        <mxCell id="0" />
        <mxCell id="1" parent="0" />
        <mxCell id="Ln0wYWGK2Pg7mDHhLt9o-11" value="局域网" style="points=[[0,0],[0.25,0],[0.5,0],[0.75,0],[1,0],[1,0.25],[1,0.5],[1,0.75],[1,1],[0.75,1],[0.5,1],[0.25,1],[0,1],[0,0.75],[0,0.5],[0,0.25]];outlineConnect=0;html=1;whiteSpace=wrap;fontSize=12;fontStyle=1;shape=mxgraph.aws4.group;grIcon=mxgraph.aws4.group_aws_cloud;verticalAlign=top;align=left;spacingLeft=30;dashed=1;" parent="1" vertex="1">
          <mxGeometry x="296.5" y="158" width="807.5" height="642" as="geometry" />
        </mxCell>
        <mxCell id="7YA4XFrxnDAU5ptN0OJv-4" value="鲲鹭平台" style="verticalAlign=top;fontStyle=1;fillColor=#f9f7ed;fontSize=17;strokeColor=#36393d;align=right;gradientDirection=east;rounded=0;shadow=1;glass=1;" parent="1" vertex="1">
          <mxGeometry x="326" y="197" width="751" height="583" as="geometry" />
        </mxCell>
        <mxCell id="Ln0wYWGK2Pg7mDHhLt9o-51" style="edgeStyle=none;rounded=0;orthogonalLoop=1;jettySize=auto;html=1;fontFamily=Tahoma;fontSize=15;fontStyle=1;strokeWidth=2;" parent="1" source="Ln0wYWGK2Pg7mDHhLt9o-35" target="1yn95lNJv_hw5B5bu8lK-18" edge="1">
          <mxGeometry relative="1" as="geometry">
            <mxPoint x="722.6808510638298" y="695.4000000000001" as="targetPoint" />
          </mxGeometry>
        </mxCell>
        <mxCell id="Ln0wYWGK2Pg7mDHhLt9o-55" style="edgeStyle=none;rounded=0;orthogonalLoop=1;jettySize=auto;html=1;fontFamily=Tahoma;fontSize=15;fontStyle=1;strokeWidth=2;entryX=0;entryY=0.75;entryDx=0;entryDy=0;" parent="1" source="Ln0wYWGK2Pg7mDHhLt9o-35" target="nnkV5mhXrsGztq5PjRuH-22" edge="1">
          <mxGeometry relative="1" as="geometry">
            <mxPoint x="1005" y="552" as="targetPoint" />
          </mxGeometry>
        </mxCell>
        <mxCell id="Ln0wYWGK2Pg7mDHhLt9o-56" style="edgeStyle=none;rounded=0;orthogonalLoop=1;jettySize=auto;html=1;fontFamily=Tahoma;fontSize=15;fontStyle=1;strokeWidth=2;entryX=0.5;entryY=0;entryDx=0;entryDy=0;entryPerimeter=0;" parent="1" source="Ln0wYWGK2Pg7mDHhLt9o-35" target="nnkV5mhXrsGztq5PjRuH-5" edge="1">
          <mxGeometry relative="1" as="geometry" />
        </mxCell>
        <mxCell id="Ln0wYWGK2Pg7mDHhLt9o-58" style="edgeStyle=none;rounded=0;orthogonalLoop=1;jettySize=auto;html=1;fontFamily=Tahoma;fontSize=15;fontStyle=1;strokeWidth=2;entryX=0.5;entryY=0;entryDx=0;entryDy=0;entryPerimeter=0;" parent="1" source="Ln0wYWGK2Pg7mDHhLt9o-35" target="nnkV5mhXrsGztq5PjRuH-7" edge="1">
          <mxGeometry relative="1" as="geometry">
            <mxPoint x="922" y="647" as="targetPoint" />
          </mxGeometry>
        </mxCell>
        <mxCell id="1yn95lNJv_hw5B5bu8lK-10" style="edgeStyle=none;rounded=0;orthogonalLoop=1;jettySize=auto;html=1;strokeWidth=2;fontColor=#212121;fontStyle=1;entryX=0;entryY=0.75;entryDx=0;entryDy=0;" parent="1" source="Ln0wYWGK2Pg7mDHhLt9o-35" target="Waf0mPEkliDc0K3OEQQ1-10" edge="1">
          <mxGeometry relative="1" as="geometry" />
        </mxCell>
        <mxCell id="Ln0wYWGK2Pg7mDHhLt9o-35" value="swarm集群（微服务）" style="points=[[0,0],[0.25,0],[0.5,0],[0.75,0],[1,0],[1,0.25],[1,0.5],[1,0.75],[1,1],[0.75,1],[0.5,1],[0.25,1],[0,1],[0,0.75],[0,0.5],[0,0.25]];outlineConnect=0;html=1;whiteSpace=wrap;fontSize=12;fontStyle=1;shape=mxgraph.aws4.group;grIcon=mxgraph.aws4.group_on_premise;strokeColor=#d6b656;fillColor=#fff2cc;verticalAlign=top;align=left;spacingLeft=30;dashed=0;shadow=1;" parent="1" vertex="1">
          <mxGeometry x="562" y="447" width="340" height="210" as="geometry" />
        </mxCell>
        <mxCell id="SCVMTBWpLvtzJIhz15lM-1" value="" style="line;strokeWidth=2;html=1;fontSize=14;fontStyle=1" parent="1" vertex="1">
          <mxGeometry x="52.5" y="139.5" width="1060" height="10" as="geometry" />
        </mxCell>
        <mxCell id="Ln0wYWGK2Pg7mDHhLt9o-12" value="" style="edgeStyle=none;rounded=0;orthogonalLoop=1;jettySize=auto;html=1;fontStyle=1;strokeWidth=2;" parent="1" source="Ln0wYWGK2Pg7mDHhLt9o-3" target="Ln0wYWGK2Pg7mDHhLt9o-11" edge="1">
          <mxGeometry relative="1" as="geometry" />
        </mxCell>
        <mxCell id="Ln0wYWGK2Pg7mDHhLt9o-3" value="局域网" style="outlineConnect=0;fontColor=#232F3E;gradientColor=none;fillColor=#232F3E;strokeColor=none;dashed=0;verticalLabelPosition=bottom;verticalAlign=top;align=center;html=1;fontSize=12;fontStyle=1;aspect=fixed;pointerEvents=1;shape=mxgraph.aws4.internet;" parent="1" vertex="1">
          <mxGeometry x="52.5" y="422" width="207.5" height="127.69" as="geometry" />
        </mxCell>
        <mxCell id="Ln0wYWGK2Pg7mDHhLt9o-13" style="edgeStyle=none;rounded=0;orthogonalLoop=1;jettySize=auto;html=1;fontStyle=1" parent="1" source="Ln0wYWGK2Pg7mDHhLt9o-10" target="Ln0wYWGK2Pg7mDHhLt9o-3" edge="1">
          <mxGeometry relative="1" as="geometry" />
        </mxCell>
        <mxCell id="1yn95lNJv_hw5B5bu8lK-8" style="edgeStyle=none;rounded=0;orthogonalLoop=1;jettySize=auto;html=1;fontColor=#212121;strokeWidth=2;fontStyle=1" parent="1" source="Ln0wYWGK2Pg7mDHhLt9o-10" target="Ln0wYWGK2Pg7mDHhLt9o-3" edge="1">
          <mxGeometry relative="1" as="geometry" />
        </mxCell>
        <mxCell id="Ln0wYWGK2Pg7mDHhLt9o-10" value="PC，APP，设备" style="outlineConnect=0;gradientColor=none;fontColor=#545B64;strokeColor=none;fillColor=#879196;dashed=0;verticalLabelPosition=bottom;verticalAlign=top;align=center;html=1;fontSize=12;fontStyle=1;aspect=fixed;shape=mxgraph.aws4.illustration_devices;pointerEvents=1" parent="1" vertex="1">
          <mxGeometry x="46" y="617.9999999999999" width="100" height="73" as="geometry" />
        </mxCell>
        <mxCell id="Ln0wYWGK2Pg7mDHhLt9o-27" style="edgeStyle=none;shape=link;rounded=0;orthogonalLoop=1;jettySize=auto;html=1;exitX=1;exitY=1;exitDx=0;exitDy=0;fontStyle=1" parent="1" source="Ln0wYWGK2Pg7mDHhLt9o-11" target="Ln0wYWGK2Pg7mDHhLt9o-11" edge="1">
          <mxGeometry relative="1" as="geometry" />
        </mxCell>
        <mxCell id="Ln0wYWGK2Pg7mDHhLt9o-30" value="微服务A_1&lt;br&gt;微服务B_2" style="outlineConnect=0;fontColor=#232F3E;gradientColor=none;fillColor=#D86613;strokeColor=none;dashed=0;verticalLabelPosition=bottom;verticalAlign=top;align=center;html=1;fontSize=12;fontStyle=1;aspect=fixed;pointerEvents=1;shape=mxgraph.aws4.instance2;shadow=1;" parent="1" vertex="1">
          <mxGeometry x="608" y="477" width="48" height="48" as="geometry" />
        </mxCell>
        <mxCell id="Ln0wYWGK2Pg7mDHhLt9o-32" value="微服务C_1&lt;br&gt;微服务A_2" style="outlineConnect=0;fontColor=#232F3E;gradientColor=none;fillColor=#D86613;strokeColor=none;dashed=0;verticalLabelPosition=bottom;verticalAlign=top;align=center;html=1;fontSize=12;fontStyle=1;aspect=fixed;pointerEvents=1;shape=mxgraph.aws4.instance2;shadow=1;" parent="1" vertex="1">
          <mxGeometry x="702" y="477" width="48" height="48" as="geometry" />
        </mxCell>
        <mxCell id="Ln0wYWGK2Pg7mDHhLt9o-34" value="微服务A_3&lt;br&gt;微服务C_2" style="outlineConnect=0;fontColor=#232F3E;gradientColor=none;fillColor=#D86613;strokeColor=none;dashed=0;verticalLabelPosition=bottom;verticalAlign=top;align=center;html=1;fontSize=12;fontStyle=1;aspect=fixed;pointerEvents=1;shape=mxgraph.aws4.instance2;direction=north;shadow=1;" parent="1" vertex="1">
          <mxGeometry x="611" y="569" width="48" height="48" as="geometry" />
        </mxCell>
        <mxCell id="Ln0wYWGK2Pg7mDHhLt9o-44" value="" style="edgeStyle=none;rounded=0;orthogonalLoop=1;jettySize=auto;html=1;fontFamily=Tahoma;fontSize=15;fontStyle=1;strokeWidth=3;" parent="1" source="Ln0wYWGK2Pg7mDHhLt9o-35" target="Ln0wYWGK2Pg7mDHhLt9o-42" edge="1">
          <mxGeometry relative="1" as="geometry" />
        </mxCell>
        <mxCell id="Ln0wYWGK2Pg7mDHhLt9o-36" value="微服务B_3&lt;br&gt;微服务D_1" style="outlineConnect=0;fontColor=#232F3E;gradientColor=none;fillColor=#D86613;strokeColor=none;dashed=0;verticalLabelPosition=bottom;verticalAlign=top;align=center;html=1;fontSize=12;fontStyle=1;aspect=fixed;pointerEvents=1;shape=mxgraph.aws4.instance2;shadow=1;" parent="1" vertex="1">
          <mxGeometry x="702" y="567" width="48" height="48" as="geometry" />
        </mxCell>
        <mxCell id="Ln0wYWGK2Pg7mDHhLt9o-37" value="微服务D_2&lt;br&gt;微服务B_1" style="outlineConnect=0;fontColor=#232F3E;gradientColor=none;fillColor=#D86613;strokeColor=none;dashed=0;verticalLabelPosition=bottom;verticalAlign=top;align=center;html=1;fontSize=12;fontStyle=1;aspect=fixed;pointerEvents=1;shape=mxgraph.aws4.instance2;direction=south;shadow=1;" parent="1" vertex="1">
          <mxGeometry x="790" y="477" width="48" height="48" as="geometry" />
        </mxCell>
        <mxCell id="Ln0wYWGK2Pg7mDHhLt9o-38" value="。。。" style="text;html=1;strokeColor=none;fillColor=none;align=center;verticalAlign=middle;whiteSpace=wrap;rounded=0;fontStyle=1;fontSize=15;fontFamily=Tahoma;" parent="1" vertex="1">
          <mxGeometry x="792" y="593" width="40" height="20" as="geometry" />
        </mxCell>
        <mxCell id="Ln0wYWGK2Pg7mDHhLt9o-40" value="" style="endArrow=classic;startArrow=classic;html=1;fontFamily=Tahoma;fontSize=15;fontStyle=1;strokeWidth=3;" parent="1" source="Ln0wYWGK2Pg7mDHhLt9o-35" target="Waf0mPEkliDc0K3OEQQ1-9" edge="1">
          <mxGeometry width="50" height="50" relative="1" as="geometry">
            <mxPoint x="736.5" y="432" as="sourcePoint" />
            <mxPoint x="732" y="414" as="targetPoint" />
          </mxGeometry>
        </mxCell>
        <mxCell id="Ln0wYWGK2Pg7mDHhLt9o-42" value="自建镜像仓库" style="outlineConnect=0;fontColor=#232F3E;gradientColor=none;fillColor=#277116;strokeColor=none;dashed=0;verticalLabelPosition=bottom;verticalAlign=top;align=center;html=1;fontSize=12;fontStyle=1;aspect=fixed;pointerEvents=1;shape=mxgraph.aws4.iot_analytics_data_store;shadow=1;" parent="1" vertex="1">
          <mxGeometry x="574" y="683" width="39.11" height="56.5" as="geometry" />
        </mxCell>
        <mxCell id="1yn95lNJv_hw5B5bu8lK-5" style="rounded=0;orthogonalLoop=1;jettySize=auto;html=1;fontColor=#212121;fontStyle=1;strokeWidth=3;" parent="1" source="1yn95lNJv_hw5B5bu8lK-7" target="Waf0mPEkliDc0K3OEQQ1-9" edge="1">
          <mxGeometry relative="1" as="geometry">
            <mxPoint x="428.9987863322335" y="380.92620610495896" as="sourcePoint" />
            <mxPoint x="708" y="335.31818181818176" as="targetPoint" />
          </mxGeometry>
        </mxCell>
        <mxCell id="9Y72CjgM9rdpncZ68y70-1" value="mqtt" style="edgeLabel;html=1;align=center;verticalAlign=middle;resizable=0;points=[];fontStyle=1;fontSize=13;" parent="1yn95lNJv_hw5B5bu8lK-5" vertex="1" connectable="0">
          <mxGeometry x="0.2238" y="-5" relative="1" as="geometry">
            <mxPoint x="-24" y="-2" as="offset" />
          </mxGeometry>
        </mxCell>
        <mxCell id="MNj4Q5Tv23RKPfTUr8Oh-10" style="rounded=0;orthogonalLoop=1;jettySize=auto;html=1;entryX=0;entryY=0.25;entryDx=0;entryDy=0;strokeWidth=3;fontStyle=1" parent="1" source="1yn95lNJv_hw5B5bu8lK-7" target="Ln0wYWGK2Pg7mDHhLt9o-35" edge="1">
          <mxGeometry relative="1" as="geometry" />
        </mxCell>
        <mxCell id="MNj4Q5Tv23RKPfTUr8Oh-11" value="tcp, websocket" style="edgeLabel;html=1;align=center;verticalAlign=middle;resizable=0;points=[];fontStyle=1;fontSize=13;" parent="MNj4Q5Tv23RKPfTUr8Oh-10" vertex="1" connectable="0">
          <mxGeometry x="0.1855" y="-1" relative="1" as="geometry">
            <mxPoint x="-19" y="-4" as="offset" />
          </mxGeometry>
        </mxCell>
        <mxCell id="1yn95lNJv_hw5B5bu8lK-7" value="负载均衡" style="outlineConnect=0;dashed=0;verticalLabelPosition=middle;verticalAlign=bottom;align=center;html=1;whiteSpace=wrap;fontSize=10;fontStyle=1;spacing=3;shape=mxgraph.aws4.productIcon;prIcon=mxgraph.aws4.network_load_balancer;fillColor=#b1ddf0;strokeColor=#10739e;fontColor=#FFFFFF;shadow=1;" parent="1" vertex="1">
          <mxGeometry x="340" y="394" width="80" height="110" as="geometry" />
        </mxCell>
        <mxCell id="1yn95lNJv_hw5B5bu8lK-14" value="&lt;font color=&quot;#000000&quot;&gt;自建redis&lt;/font&gt;" style="outlineConnect=0;dashed=0;verticalLabelPosition=bottom;verticalAlign=top;align=center;html=1;shape=mxgraph.aws3.redis;fillColor=#2E73B8;gradientColor=none;fontColor=#FFFFFF;fontStyle=1" parent="1" vertex="1">
          <mxGeometry x="792" y="682" width="60" height="57.75" as="geometry" />
        </mxCell>
        <mxCell id="1yn95lNJv_hw5B5bu8lK-15" style="rounded=0;orthogonalLoop=1;jettySize=auto;html=1;fontColor=#212121;fontStyle=1;strokeWidth=3;exitX=0.75;exitY=1;exitDx=0;exitDy=0;entryX=0.5;entryY=0;entryDx=0;entryDy=0;entryPerimeter=0;" parent="1" source="Ln0wYWGK2Pg7mDHhLt9o-35" target="1yn95lNJv_hw5B5bu8lK-14" edge="1">
          <mxGeometry relative="1" as="geometry">
            <mxPoint x="849" y="862.7073170731708" as="sourcePoint" />
            <mxPoint x="872" y="696" as="targetPoint" />
          </mxGeometry>
        </mxCell>
        <mxCell id="1yn95lNJv_hw5B5bu8lK-18" value="自建mongodb" style="dashed=0;outlineConnect=0;html=1;align=center;labelPosition=center;verticalLabelPosition=bottom;verticalAlign=top;shape=mxgraph.webicons.mongodb;gradientColor=#DFDEDE;fontColor=#33001A;fontStyle=1;shadow=1;" parent="1" vertex="1">
          <mxGeometry x="688" y="687" width="64" height="51.75" as="geometry" />
        </mxCell>
        <mxCell id="nnkV5mhXrsGztq5PjRuH-5" value="kafka" style="points=[[0,0,0],[0.25,0,0],[0.5,0,0],[0.75,0,0],[1,0,0],[0,1,0],[0.25,1,0],[0.5,1,0],[0.75,1,0],[1,1,0],[0,0.25,0],[0,0.5,0],[0,0.75,0],[1,0.25,0],[1,0.5,0],[1,0.75,0]];outlineConnect=0;fontColor=#232F3E;gradientColor=#945DF2;gradientDirection=north;fillColor=#5A30B5;strokeColor=#ffffff;dashed=0;verticalLabelPosition=bottom;verticalAlign=top;align=center;html=1;fontSize=12;fontStyle=1;aspect=fixed;shape=mxgraph.aws4.resourceIcon;resIcon=mxgraph.aws4.managed_streaming_for_kafka;rounded=0;shadow=1;glass=1;" parent="1" vertex="1">
          <mxGeometry x="979" y="601" width="51" height="51" as="geometry" />
        </mxCell>
        <mxCell id="nnkV5mhXrsGztq5PjRuH-7" value="elk" style="outlineConnect=0;dashed=0;verticalLabelPosition=bottom;verticalAlign=top;align=center;html=1;shape=mxgraph.aws3.elasticsearch_service;fillColor=#F58534;gradientColor=none;rounded=0;shadow=1;glass=1;fontStyle=1" parent="1" vertex="1">
          <mxGeometry x="915" y="673" width="54" height="59" as="geometry" />
        </mxCell>
        <mxCell id="nnkV5mhXrsGztq5PjRuH-22" value="rabbitmq" style="shape=image;verticalLabelPosition=bottom;labelBackgroundColor=#ffffff;verticalAlign=top;aspect=fixed;imageAspect=0;image=data:image/png,iVBORw0KGgoAAAANSUhEUgAAALEAAAAtCAYAAADhjYr9AAALvklEQVR4Ae2dXYxdVRXH1xhG02nCh61Y0orTGEb8wLaatMGQaIPyVAMYPxJiQvHF4Iut+EQ01oQQDUHKE/rkEBMf8ME28qIRC0kjyoMdaPiwFTtIK0pbaFGmiTUZ8ztn/vfu2Xfvc/a5c89lTrNXcuacs/faa3+c/1577bXOuTOxuLi4aJnyCHR4BN7V4bbnpucRKEYggzgDofMjkEHc+UeYO5BBnDHQ+RHIIO78I8wdyCDOGOj8CGQQd/4R5g5kEGcMdH4ELhvowRP7zZ492E9ec6XZVx4yWzfdT9PVr/eZHX9KdyXPru+Heftc1VfInJgI83xgqxntmflMOH9UqX+YNXvjFbMb7xy+L+oH4zEMPfMLs5PP9Ut+8Yf96yGvnj/+0rKSH7vu+mX3TW6OnXjZLv7vYq9Iiqz5k3+3U/96zc69dd7evrBQlL163Xp733vX2/Sma23tmqmevCYXgyBm8C+cXy5j0xazL+xbnsbd4z8YTIP35j2D6akpIZmhsp/ebbbSCROSS9rTs2bHnionS2jyxsq56erHsCBG1m9+VEr8/HdcyUNf+yC+8vIrbOP7r2ksDwDOvXh0WbkqEAPaZ577cwHeZYXM7PWzZ4qDtm376A123fSHfJba+0EQ+wCuFeExLJzzEoa8dbXg2XkzDghwQWjLuQNmX37IDEBnajwCaMVhQHzqn68l1wWAD/3psF28WGpttC7alwkkjYyGho68cNT+s7BQgDm5AjMbBHGT0m3yAsyZz4ZrAMCP7TFjwjx6lxlmBselRju+Vt8jxoDJ3GAiA1wAzDEMzZ8qQScgxmSgsQXgqTVTdtOndhTgFb8m0LaP3FDwAerj8y8XIFeeeKvO3dzY8cDunzdbc0XZt1/urepjN/O232H29Z+Xx5ceCPeB1em+baX5E+YIpgogaEeA04QApsqgVato7oWjhQaevGxyAMBuucnJSdu54yYD6BDlmlA3QUwPp9hw7i/7+pcnS63cpOeXAq9rZjXoD2BBi0Inlpby1OKnz54pWAGmJkOoLECXpsdeVn0hXtIA8vZPfLLIZqKwcUyl7oKYHn7YMTdOzqX2OfOZFR4BBuIfDU0KAXPjhuoNoSYHYN+86dqkMZetDLNMlpSC3QbxsJ6DlJG5xHkELNc8qOsy5kcPxDVejR7fhmsKLVsnW/nS7mhy2pZCq3djl9L6VxO1L3yu7xvZW25tthlEBp6RC+dKX/XWW5v7kI892feuMAFpA2ZRjE4vLanvWWt2+YaSi43cyWfL61eXzniU5LWRLPYLFZtdlnfMioULC4VJgXurjgRMmRK4x0IE+JALXV1jN/vlXTsbIKf4jrsNYkAh2hTwTpA/e1ffPSdezvjDAdLdv6p82IUH5Ce3m2F3u4R3BH84gaA6YgI8cvtgOwDwrn1mN38rLGH/LWZn/mb2gONFwGx6cOdyfuQ/6JhW5BIQusdr8/JShU2LNwCTogmI60yJtxf6GlSbNa/q6C0mhQgQSzMrLXROA7F8tK4EBi5EaKpxEBrpiYfLmgiw+BoNAOthr/ug2Y27Sxv6zLwZQMBNR79+vNPsu0fiWhVwoPmQAWgBPi6tpx81I7qJDCZCjFQH7QVYtIO2Uj+rQ+EqfDMcTArJdCOW0sohrVuhhSUWkwIQozk5qrReE1Pi9Bt9DX3V0gZSdaac0fREAwFxCqWBmAfGg3SB4msm1QawWNpcXuW5Zx7GnT+r53PL6JqHB/g0ub665KVQPufZpQAIAEcjqT0zS0xowPu2mp19pdTKu2fd0uU1QKPfBF7c/K23mXGgXQE0YI5FKZFBe9HYLg/lKffY3jLyySY15hd3WwY4pWE1Ud00l7fm2jUpCGDMbI5Hy153gJmiHVU1XoemRLuYCP9dCpDUlU8DMVJimjdUQyovy2jKg1MdPLS5g6VfFGBATARfBvUDTohwuQBcppR/SQPIBEt8e1J8aEomgQtg5QFC2s+k5XABKh7Ov3+4tH1D+aQxCaifMPW3PZPAldPSNYBEG+MNqAKx7OEmAG6pyQNi00E8ULTlBDQUQAOsoUnB0gxAfQDTLJb8ew6VDQzZymo6QATE0uhK15m6mSQxAoQAmPKAEXk+ISM0CcSHDEDMyoYc2j5Gkkkhb0DMpFCoOQXEsQ1fW91avS42gMuDDQGYiB3ACAGYkQL85HGEtLBGsyoPHuzgEDBVHsChqSFWiRDVeSBc+TETLSR3RGkyKRAnoPqi0cJ6Yy0FxO8ewoTw62xyv3pBjA2JNtWBRmT5ZhODnUm4lXObFJskbp0KuIQmG3zKd8v413q1NLYi+PwjvhcwYwEG15RIsXGZGOOkdswJ31sQszmrespmxQWRuyF75LZyCW775Z+UpZ0NKhR7+y/BS9Abhpg27zG0c+GaFHghfKBKQwvs7bSiL1Vav59SfTV6EPs7eerXLry6LWm5mAB3HzC7d7oEDrKrbE6kFjbrwdK1xjVaUxvDqlqbADCmiavkK496hpnoKr/Cs0wKAhRoXV5QF2HfClTDgDg0KSQ7dpZrLdUsGT2IQ9qrCRhiPXPTATJ2MZsqPxLn8gFYNohsukLEiqHoVyi/zmamTB1P1cZSdUqb6/4dOBNk0JcXLohlShBJ8zV0rJlu1O3Nt84Xr1bGeP10QC9KNUtWr02snsTOBA2gmPcCzYjdDICxo/nCgqDGTxf7x/ciARvVmaKt63hSXkxaiRZXW1d4lpYtNnEOkARi5adUs3aq/5mRtGpKOXhcf7Q7GarKdxfErnb3bUmARTCEM9qWd49xx7llqkZFeU3Apc2ZyjY5K8oZWsWayFkBLyAlUgYJuABQ70DUhZrdqnHTKdx87t9pUTeVd91zbgha+aHz6EHMh6O+dmrLiyDg+GBD+6oN3zwQX/L9chohLe8Cl9JDZ8lQGfHI9UaYu47klXgHQUwTBVSBWK9TsqzH/Mexrklz+5o9xq901Z2qhSk3ehDj69x7ldk3JvoHYes2SN4L364VKABSFTD4IDRE0tgpmy2tAr4rTfXWmRNMAkUXfRmhtrWYJuBpSRegpjf2N3qp1Sv6h42ryVBXlhfhpfmrPjz15YwexH4Nbd4LbABBmtetL+b2ggegxyaXAhAFwCo0KSuM6lAZ1a976gi1TXx4VyDsdk1K5Y35LJMC4PH1sQAlDd2kOWhubRD5MrrONib/+b+WPymAFo6ZEvBhcjDBOLMZvTRAzOi6Gk8eA4Cq5d59AqTz8k4MXEwOmQN4N0KEXH3b536ZLV5ADDCp4/HAzx3AhxbXRAr9JIJkxc7yfLBixPoSKxtJF2CPzZfvMg9jSkg0H4DKNv7t4UPFOxqu9wE+7gGiPijFLt++pfxMSXLcM+0B4PBxxvsxehebW2Pb1yzZhIZZjjFjpMnwXAh8bPC4B5gCtVxueCz0+xB+W3kzjlc54QXw7g/IoIEBMMABqCEAMpF4LwL5uAJtovSQkE45wCtwM2HgbUrIUv/pJ6+Eyoyhr7puIBdtDKgENpkYDUT0WHHJ8YXzoT8eLnzNfJLP4WpZdyNHwY/PXF+836w32PBR878MYu8740seBDEPRUtkrzmr+AJtBIhdjcvDJUxNRA/AaMl2uwGAAV8MxEwIyQDIAr4rAwAReImBBfmACcDShlA72JwiY1jiY1kmGf2/d3NfCnL1ymY/tfaqZ1Is/brPSkBMZWjOXTtvsSMvHi0mB2k+cN1GAXKf6jZ5gyAm+uUCwpc4qnuAJs3pytQv5sSA4fJy/bk9pZb1+QmGrJ82+53zs1xoPDZPaD3xqz5fLvfIgJ+vQACjNnoABO1Ofh0xnvDRDmSwCZX9S7ps55Ccqjzxw3P/ibKNmCfaJKp/4jMzbZZcP66T3btE6+n7NkAYI+RIZoyHdDQyXzJjXrBprLOPfVkhz4j6AMAn8j+e8Ycs33dtBLq9sevaaOf2tjICGcStDGsWOs4RyCAe52jnuloZgQziVoY1Cx3nCGQQj3O0c12tjEAGcSvDmoWOcwQyiMc52rmuVkbg/5KFfhe+icpRAAAAAElFTkSuQmCC;fontStyle=1" parent="1" vertex="1">
          <mxGeometry x="979" y="531" width="89" height="22.63" as="geometry" />
        </mxCell>
        <mxCell id="Waf0mPEkliDc0K3OEQQ1-3" value="" style="rounded=0;orthogonalLoop=1;jettySize=auto;html=1;fontStyle=1;strokeWidth=2;" edge="1" parent="1" source="Waf0mPEkliDc0K3OEQQ1-1" target="Ln0wYWGK2Pg7mDHhLt9o-42">
          <mxGeometry relative="1" as="geometry" />
        </mxCell>
        <mxCell id="Waf0mPEkliDc0K3OEQQ1-5" value="" style="rounded=0;orthogonalLoop=1;jettySize=auto;html=1;fontStyle=1;strokeWidth=2;" edge="1" parent="1" source="Waf0mPEkliDc0K3OEQQ1-1" target="Waf0mPEkliDc0K3OEQQ1-4">
          <mxGeometry relative="1" as="geometry" />
        </mxCell>
        <mxCell id="Waf0mPEkliDc0K3OEQQ1-1" value="jenkins" style="shape=image;html=1;verticalAlign=top;verticalLabelPosition=bottom;labelBackgroundColor=#ffffff;imageAspect=0;aspect=fixed;image=https://cdn4.iconfinder.com/data/icons/logos-brands-5/24/jenkins-128.png;fontStyle=1;imageBackground=#ffffff;" vertex="1" parent="1">
          <mxGeometry x="432" y="639.13" width="92.87" height="92.87" as="geometry" />
        </mxCell>
        <mxCell id="Waf0mPEkliDc0K3OEQQ1-4" value="gitlab" style="shape=image;html=1;verticalAlign=top;verticalLabelPosition=bottom;labelBackgroundColor=#ffffff;imageAspect=0;aspect=fixed;image=https://cdn4.iconfinder.com/data/icons/socialcones/508/Gitlab-128.png;fontStyle=1" vertex="1" parent="1">
          <mxGeometry x="350.38" y="678.13" width="59.25" height="59.25" as="geometry" />
        </mxCell>
        <mxCell id="Waf0mPEkliDc0K3OEQQ1-7" style="edgeStyle=orthogonalEdgeStyle;rounded=0;orthogonalLoop=1;jettySize=auto;html=1;entryX=0;entryY=0.5;entryDx=0;entryDy=0;fontStyle=1" edge="1" parent="1" source="Waf0mPEkliDc0K3OEQQ1-6" target="Ln0wYWGK2Pg7mDHhLt9o-35">
          <mxGeometry relative="1" as="geometry" />
        </mxCell>
        <mxCell id="Waf0mPEkliDc0K3OEQQ1-8" value="http" style="edgeLabel;html=1;align=center;verticalAlign=middle;resizable=0;points=[];fontStyle=1;fontSize=13;" vertex="1" connectable="0" parent="Waf0mPEkliDc0K3OEQQ1-7">
          <mxGeometry x="-0.1549" y="-3" relative="1" as="geometry">
            <mxPoint as="offset" />
          </mxGeometry>
        </mxCell>
        <mxCell id="Waf0mPEkliDc0K3OEQQ1-6" value="nginx" style="shape=image;html=1;verticalAlign=top;verticalLabelPosition=bottom;labelBackgroundColor=#ffffff;imageAspect=0;aspect=fixed;image=https://cdn4.iconfinder.com/data/icons/logos-brands-5/24/nginx-128.png;fontStyle=1" vertex="1" parent="1">
          <mxGeometry x="340" y="516" width="72" height="72" as="geometry" />
        </mxCell>
        <mxCell id="Waf0mPEkliDc0K3OEQQ1-9" value="" style="outlineConnect=0;dashed=0;verticalLabelPosition=bottom;verticalAlign=top;align=center;html=1;shape=mxgraph.aws3.mqtt_protocol;fillColor=#5294CF;gradientColor=none;shadow=1;" vertex="1" parent="1">
          <mxGeometry x="694.5" y="332" width="63" height="66" as="geometry" />
        </mxCell>
        <mxCell id="Waf0mPEkliDc0K3OEQQ1-10" value="consul" style="shape=image;verticalLabelPosition=bottom;labelBackgroundColor=#ffffff;verticalAlign=top;aspect=fixed;imageAspect=0;image=data:image/png,iVBORw0KGgoAAAANSUhEUgAAAGQAAAApCAYAAADDJIzmAAAIHElEQVR4Ae1aC0xURxQ9u7DA8seyWJbWUilEhRItCn5aXTW18RejBlExRUujDdomGmsT08aatpo0wU8IjTXWWNNY1ESRxqaFGq2NAaI0aADlI8EP8lNYYVkExG3u0Hm8fW9lHywka/tuMpmZO/feee+eN3dm7q7GZrPZoJLbeEDrNk+iPgjzgAqIm30IKiAqIG7mATd7HHWFqIC4mQfc7HE8h/s8fW0WPDN3gmqPEH9og3yhDfSFxtNjuCZVPQBDAqSrsBLWy2Ww5BY7dJ7HmAD4LUqA/6IE6F4f61BGZQ7uAY2Si2F32R2Yv/8dT67VDG6Nj3p6IDB5FkI+WcI5aq3QA04Bac/5C+ZDv8HW3avQ5ICY9+TXYfhmHWjlqKTMA4OGLPORAjz+oUCZJQdSfc2PQUUFRO6cc+fO4e7duygsLMSJEycEgeeuEAKCAJGSd+w4+C2kPSKM7RNaHy+2sdPmbr1UhvafLjEVrZ8PDN+mweetKKkJxf0LFy6why0tLcW9e/dgsVgwfvx4VoxGI8LDw7Fr1y7F9txJcO7cubh0qd9X4nSiwxXSfaPOIRh+701B6JdrZO/lqR8DT+MYEFg+U99Ax8+XEZA8yyUwTp48idWrV8vmKi8vBxWirKws2fiLznAISPvpK7L3Csv8APqZE2R8KUOfFAPvuHGgFcKp5bMfYb1cjlcLdkPrr+fs59bd3d3YuXOn3XhycjJiY2Nx69YtVFZWshIaGmon81/oyADpKqqE9Y/rdu/mvyxJERhcSQwG8XTRRvh0dCkCg+Tv37+P2tpabg7iJS0w/6MNWepEerTVBvshKG2eS68f/OG7GPvdR4pt0H7ByWQy8abTevfu3Vi+fDlCQkIQFxeHDRs24OjRo3Z6FLcpflMh6uzsxKlTp5CWlgZacVOmTMHp06ftdI4dO4bFixcjOjoaGo2G2V61ahW2bdsmyHGb3C4fEM8nHeMydjXdQ8T0IO2ArW76p0Jp/vwn8bDQ7iqpsT386qStMeOQrT3nL4EvbpCM+Ui+ra/Dauv8s8zWvOMYa4tlHLUvXrxIP5qxYjKZHInIeEajUdDhurxeu3atIC+2HRUV5VAnODjY1t7eznTE8twerw0Gg2CX86gWk1hf/C7U5jpieVnI6qmstwNM94o8Tj9taEPT5u8FuSd/30ZfRxdoJYjJcv4aOn8tgX52LKx/lrF9JKihDV7RzvcRsR1nbfpSHzx4wMRiYmIwc+ZM1r9+/TqamprYSW3NmjVYssT+onr79m3BNK3Eq1evshVjNptRUlIC4tHhgtPChQuRlJSExsZGNDc3o7W1lQ+NWC0DRGpZF/WylMXSJ1Jm99/0cvaABH+4AP6Lp8Ir2ojQL1IQuPod1pbqutKvr6/H/v37BRNnz57FpEmTWJ9CD4UWovPnz8sAmTZtGjIyMrBy5UoEBARg+/btyMzMFGxRgw4RnHbs2MFA4v3RqGV7iHQSjYdTEamKXb+3uoH1aVU9szyxGxuJTnV1tWCGvmgOBjHpZMZJ7FjOo31h/fr1DAziEShSSkhIEFgHDx7E4cOH0dHRIfBGuiHztjbQPpz03mmRzek7Ow5a/4FjLQno58TK5MxH8tF6IA8U0toO5KEp4xB6qvtDi0zYTRliQHJzc7Fp0yZMnDgRW7ZsQU2NwtzeEN5NFrL0iTHoFB17e+uaZOY8w0MQfnwraI8g8ooxwne2HBAKWTTGb+t0/KXw9SIR7T10Lzpz5gxLczx8+BAUJrOzs1kZ6SO5bIV4vxlp5y9Kh9AXLiUChTZxKo7AIHmSCUx5h6kSKNJNX2rTXfsU1vLy8nDjxg3k5OTYhUKe/hipZ5cDMjkSGh+dYJ+yvK3784T+cBp0Imv4IAu9d+Xhz5G9yMiBj8LZC0tlKyoqBJPi+wTlwFwlyp2lpKSwjMFgthoa+vfN/Px80L4zFJKFLK+YCAStM9nlsnprGlhf6RfeZ+6ER7Cf6DlseGa2QKOTTSeSGWiSk+fPnw9KLhLRZYxfEClkPHr0CFQfP36c5bto8+bOp4uh+NjLrc6bN7zL7ebNm5ltStvQgcFqtaKuro6bZZdF6sTHx7MVRG2aXywjCCtoOPRQYKqJ3Rl6qgY2YMr+9pTdQcjWZdC9Zniu6Y7cIlgLShH4/jxQXotobLbyWzo3vGfPHnZMbWnpX1WOVgqBQkQ37YiICHb3qKqqAhUxLViwAKmpqWKW4jY5lp6B5pc+w9KlS9m8ZGzFihUCIFIwDAYDs6FkUoeAUMgKSn8XlBQUU1dxFbrTs+BrioNX7DjoE6Oh0XuBVhCdxqxXbuJJcb8zeqoaEJa5Ad7xA+FHbMtZOzExkW2i+/btQ1FRkcP0O60UTrTRUuqEUvXkOAKI7hkzZszAxo0buRir+WqzY/7bkY6lp6djzpw5uHnzJoqLi9mXTymU6dOnY+/evYIJ+hmAstAFBQWYMGECS7XQsZpSMbTKxKGUK0nnIv5zfw+hQfq1sO3gL1x/yLXnq6EwfL2OnbSGrPw/VZBt6mI/0M16bPYmMWtIbZ/4SOjGq392GIrTBl0h3FBfy2O07jvHfhHkvMFqOu6GfLwEvnPfHExMHXPgAUWAcL3e2kZYL1egq/AWemub8MzSxYfgGfESdJFhrASuehseYUHCmNpQ7oEhASI1+7T+EfoeWxkIWl9v6bDaH4YHXAJkGPOpKk48MOim7kRXHR4FD6iAjIJTXTGpAuKK90ZBVwVkFJzqikkVEFe8Nwq6KiCj4FRXTKqAuOK9UdD9B+bJ2djGz+rBAAAAAElFTkSuQmCC;fontStyle=1;sketch=0;" vertex="1" parent="1">
          <mxGeometry x="954.5" y="447" width="100" height="41" as="geometry" />
        </mxCell>
      </root>
    </mxGraphModel>
  </diagram>
</mxfile>
